HIERARCHY
ROOT mixamorig:Hips
{
	OFFSET -0.000008 104.274872 1.554316
	CHANNELS 6 Xposition Yposition Zposition Xrotation Yrotation Zrotation
	JOINT mixamorig:Spine
	{
		OFFSET -0.000005 10.181595 0.131519
		CHANNELS 6 Xposition Yposition Zposition Xrotation Yrotation Zrotation
		JOINT mixamorig:Spine1
		{
			OFFSET -0.000000 9.893959 -1.470707
			CHANNELS 6 Xposition Yposition Zposition Xrotation Yrotation Zrotation
			JOINT mixamorig:Spine2
			{
				OFFSET -0.000000 9.220757 -1.370641
				CHANNELS 6 Xposition Yposition Zposition Xrotation Yrotation Zrotation
				JOINT mixamorig:Neck
				{
					OFFSET 0.000001 16.740417 -2.049036
					CHANNELS 6 Xposition Yposition Zposition Xrotation Yrotation Zrotation
					JOINT mixamorig:Head
					{
						OFFSET 0.000000 9.617874 1.685006
						CHANNELS 6 Xposition Yposition Zposition Xrotation Yrotation Zrotation
						JOINT mixamorig:HeadTop_End
						{
							OFFSET 0.000002 22.037354 7.501101
							CHANNELS 6 Xposition Yposition Zposition Xrotation Yrotation Zrotation
							End Site
							{
								OFFSET 0.000168 2310.654297 -282.823242
							}
						}
					}
				}
				JOINT mixamorig:RightShoulder
				{
					OFFSET -4.569970 11.014908 -2.160885
					CHANNELS 6 Xposition Yposition Zposition Xrotation Yrotation Zrotation
					JOINT mixamorig:RightArm
					{
						OFFSET -10.592851 -0.524811 -2.232101
						CHANNELS 6 Xposition Yposition Zposition Xrotation Yrotation Zrotation
						JOINT mixamorig:RightForeArm
						{
							OFFSET -27.841511 0.000031 -0.000004
							CHANNELS 6 Xposition Yposition Zposition Xrotation Yrotation Zrotation
							JOINT mixamorig:RightHand
							{
								OFFSET -28.328831 -0.000015 0.000015
								CHANNELS 6 Xposition Yposition Zposition Xrotation Yrotation Zrotation
								JOINT mixamorig:RightHandThumb1
								{
									OFFSET -2.464806 -1.573990 2.681852
									CHANNELS 6 Xposition Yposition Zposition Xrotation Yrotation Zrotation
									JOINT mixamorig:RightHandThumb2
									{
										OFFSET -3.215179 -1.872803 1.924282
										CHANNELS 6 Xposition Yposition Zposition Xrotation Yrotation Zrotation
										JOINT mixamorig:RightHandThumb3
										{
											OFFSET -2.654831 -1.527969 1.512609
											CHANNELS 6 Xposition Yposition Zposition Xrotation Yrotation Zrotation
											JOINT mixamorig:RightHandThumb4
											{
												OFFSET -2.018814 -1.152008 1.108052
												CHANNELS 6 Xposition Yposition Zposition Xrotation Yrotation Zrotation
												End Site
												{
													OFFSET -188.809540 -114.533607 132.431396
												}
											}
										}
									}
								}
								JOINT mixamorig:RightHandIndex1
								{
									OFFSET -9.108284 -0.517868 2.259835
									CHANNELS 6 Xposition Yposition Zposition Xrotation Yrotation Zrotation
									JOINT mixamorig:RightHandIndex2
									{
										OFFSET -3.699989 0.000000 0.001215
										CHANNELS 6 Xposition Yposition Zposition Xrotation Yrotation Zrotation
										JOINT mixamorig:RightHandIndex3
										{
											OFFSET -2.850006 0.000031 -0.000522
											CHANNELS 6 Xposition Yposition Zposition Xrotation Yrotation Zrotation
											JOINT mixamorig:RightHandIndex4
											{
												OFFSET -2.772186 -0.000015 -0.000020
												CHANNELS 6 Xposition Yposition Zposition Xrotation Yrotation Zrotation
												End Site
												{
													OFFSET -277.218445 0.000000 -0.050231
												}
											}
										}
									}
								}
								JOINT mixamorig:RightHandMiddle1
								{
									OFFSET -9.532516 -0.000031 -0.000023
									CHANNELS 6 Xposition Yposition Zposition Xrotation Yrotation Zrotation
									JOINT mixamorig:RightHandMiddle2
									{
										OFFSET -3.700005 -0.000015 0.003713
										CHANNELS 6 Xposition Yposition Zposition Xrotation Yrotation Zrotation
										JOINT mixamorig:RightHandMiddle3
										{
											OFFSET -2.949974 0.000015 -0.002054
											CHANNELS 6 Xposition Yposition Zposition Xrotation Yrotation Zrotation
											JOINT mixamorig:RightHandMiddle4
											{
												OFFSET -2.946640 0.000000 -0.000156
												CHANNELS 6 Xposition Yposition Zposition Xrotation Yrotation Zrotation
												End Site
												{
													OFFSET -294.664337 0.000000 -0.113670
												}
											}
										}
									}
								}
								JOINT mixamorig:RightHandRing1
								{
									OFFSET -9.103600 -0.043076 -1.865134
									CHANNELS 6 Xposition Yposition Zposition Xrotation Yrotation Zrotation
									JOINT mixamorig:RightHandRing2
									{
										OFFSET -3.379288 0.000000 -0.001055
										CHANNELS 6 Xposition Yposition Zposition Xrotation Yrotation Zrotation
										JOINT mixamorig:RightHandRing3
										{
											OFFSET -2.889687 -0.000015 0.000379
											CHANNELS 6 Xposition Yposition Zposition Xrotation Yrotation Zrotation
											JOINT mixamorig:RightHandRing4
											{
												OFFSET -2.638809 -0.000015 0.000941
												CHANNELS 6 Xposition Yposition Zposition Xrotation Yrotation Zrotation
												End Site
												{
													OFFSET -263.880371 0.000000 0.516020
												}
											}
										}
									}
								}
								JOINT mixamorig:RightHandPinky1
								{
									OFFSET -8.076683 -0.486710 -3.806280
									CHANNELS 6 Xposition Yposition Zposition Xrotation Yrotation Zrotation
									JOINT mixamorig:RightHandPinky2
									{
										OFFSET -3.600014 -0.000015 -0.003747
										CHANNELS 6 Xposition Yposition Zposition Xrotation Yrotation Zrotation
										JOINT mixamorig:RightHandPinky3
										{
											OFFSET -2.099983 0.000000 -0.005739
											CHANNELS 6 Xposition Yposition Zposition Xrotation Yrotation Zrotation
											JOINT mixamorig:RightHandPinky4
											{
												OFFSET -2.115768 -0.000031 -0.003680
												CHANNELS 6 Xposition Yposition Zposition Xrotation Yrotation Zrotation
												End Site
												{
													OFFSET -211.577087 0.000000 -0.350686
												}
											}
										}
									}
								}
							}
						}
					}
				}
				JOINT mixamorig:LeftShoulder
				{
					OFFSET 4.570447 11.014725 -2.160855
					CHANNELS 6 Xposition Yposition Zposition Xrotation Yrotation Zrotation
					JOINT mixamorig:LeftArm
					{
						OFFSET 10.592371 -0.524597 -2.232119
						CHANNELS 6 Xposition Yposition Zposition Xrotation Yrotation Zrotation
						JOINT mixamorig:LeftForeArm
						{
							OFFSET 27.841532 -0.000031 0.000026
							CHANNELS 6 Xposition Yposition Zposition Xrotation Yrotation Zrotation
							JOINT mixamorig:LeftHand
							{
								OFFSET 28.328846 -0.000061 0.000022
								CHANNELS 6 Xposition Yposition Zposition Xrotation Yrotation Zrotation
								JOINT mixamorig:LeftHandThumb1
								{
									OFFSET 2.466141 -1.576172 2.681732
									CHANNELS 6 Xposition Yposition Zposition Xrotation Yrotation Zrotation
									JOINT mixamorig:LeftHandThumb2
									{
										OFFSET 3.217812 -1.872070 1.916482
										CHANNELS 6 Xposition Yposition Zposition Xrotation Yrotation Zrotation
										JOINT mixamorig:LeftHandThumb3
										{
											OFFSET 2.656029 -1.528778 1.514513
											CHANNELS 6 Xposition Yposition Zposition Xrotation Yrotation Zrotation
											JOINT mixamorig:LeftHandThumb4
											{
												OFFSET 2.020889 -1.154053 1.115139
												CHANNELS 6 Xposition Yposition Zposition Xrotation Yrotation Zrotation
												End Site
												{
													OFFSET 190.885437 -115.081749 130.048782
												}
											}
										}
									}
								}
								JOINT mixamorig:LeftHandIndex1
								{
									OFFSET 9.109314 -0.518021 2.259871
									CHANNELS 6 Xposition Yposition Zposition Xrotation Yrotation Zrotation
									JOINT mixamorig:LeftHandIndex2
									{
										OFFSET 3.699989 0.000000 -0.000322
										CHANNELS 6 Xposition Yposition Zposition Xrotation Yrotation Zrotation
										JOINT mixamorig:LeftHandIndex3
										{
											OFFSET 2.850006 0.000000 0.000352
											CHANNELS 6 Xposition Yposition Zposition Xrotation Yrotation Zrotation
											JOINT mixamorig:LeftHandIndex4
											{
												OFFSET 2.774864 -0.000031 -0.000027
												CHANNELS 6 Xposition Yposition Zposition Xrotation Yrotation Zrotation
												End Site
												{
													OFFSET 277.486267 0.000000 -0.009857
												}
											}
										}
									}
								}
								JOINT mixamorig:LeftHandMiddle1
								{
									OFFSET 9.533394 0.000061 0.000044
									CHANNELS 6 Xposition Yposition Zposition Xrotation Yrotation Zrotation
									JOINT mixamorig:LeftHandMiddle2
									{
										OFFSET 3.699989 -0.000015 -0.000231
										CHANNELS 6 Xposition Yposition Zposition Xrotation Yrotation Zrotation
										JOINT mixamorig:LeftHandMiddle3
										{
											OFFSET 2.949997 -0.000015 -0.000059
											CHANNELS 6 Xposition Yposition Zposition Xrotation Yrotation Zrotation
											JOINT mixamorig:LeftHandMiddle4
											{
												OFFSET 2.952896 0.000031 0.000063
												CHANNELS 6 Xposition Yposition Zposition Xrotation Yrotation Zrotation
												End Site
												{
													OFFSET 295.289337 0.000000 0.022810
												}
											}
										}
									}
								}
								JOINT mixamorig:LeftHandRing1
								{
									OFFSET 9.104523 -0.042999 -1.865074
									CHANNELS 6 Xposition Yposition Zposition Xrotation Yrotation Zrotation
									JOINT mixamorig:LeftHandRing2
									{
										OFFSET 3.150009 -0.000031 0.000043
										CHANNELS 6 Xposition Yposition Zposition Xrotation Yrotation Zrotation
										JOINT mixamorig:LeftHandRing3
										{
											OFFSET 2.949982 -0.000015 0.000040
											CHANNELS 6 Xposition Yposition Zposition Xrotation Yrotation Zrotation
											JOINT mixamorig:LeftHandRing4
											{
												OFFSET 2.644348 0.000000 0.000057
												CHANNELS 6 Xposition Yposition Zposition Xrotation Yrotation Zrotation
												End Site
												{
													OFFSET 264.434631 0.000000 0.012105
												}
											}
										}
									}
								}
								JOINT mixamorig:LeftHandPinky1
								{
									OFFSET 8.077789 -0.486847 -3.806259
									CHANNELS 6 Xposition Yposition Zposition Xrotation Yrotation Zrotation
									JOINT mixamorig:LeftHandPinky2
									{
										OFFSET 3.599953 0.000031 0.014727
										CHANNELS 6 Xposition Yposition Zposition Xrotation Yrotation Zrotation
										JOINT mixamorig:LeftHandPinky3
										{
											OFFSET 2.100021 0.000015 0.007705
											CHANNELS 6 Xposition Yposition Zposition Xrotation Yrotation Zrotation
											JOINT mixamorig:LeftHandPinky4
											{
												OFFSET 2.125504 0.000031 0.007517
												CHANNELS 6 Xposition Yposition Zposition Xrotation Yrotation Zrotation
												End Site
												{
													OFFSET 212.550781 0.000000 0.625752
												}
											}
										}
									}
								}
							}
						}
					}
				}
			}
		}
	}
	JOINT mixamorig:RightUpLeg
	{
		OFFSET -8.207787 -6.751648 -1.599560
		CHANNELS 6 Xposition Yposition Zposition Xrotation Yrotation Zrotation
		JOINT mixamorig:RightLeg
		{
			OFFSET -0.000002 -44.370117 0.345942
			CHANNELS 6 Xposition Yposition Zposition Xrotation Yrotation Zrotation
			JOINT mixamorig:RightFoot
			{
				OFFSET 0.000003 -44.423679 -3.043532
				CHANNELS 6 Xposition Yposition Zposition Xrotation Yrotation Zrotation
				JOINT mixamorig:RightToeBase
				{
					OFFSET -0.000002 -8.728671 10.710558
					CHANNELS 6 Xposition Yposition Zposition Xrotation Yrotation Zrotation
					JOINT mixamorig:RightToe_End
					{
						OFFSET -0.000001 -0.000679 9.278119
						CHANNELS 6 Xposition Yposition Zposition Xrotation Yrotation Zrotation
						End Site
						{
							OFFSET 0.000000 -0.067690 927.812134
						}
					}
				}
			}
		}
	}
	JOINT mixamorig:LeftUpLeg
	{
		OFFSET 8.207793 -6.751686 -1.599556
		CHANNELS 6 Xposition Yposition Zposition Xrotation Yrotation Zrotation
		JOINT mixamorig:LeftLeg
		{
			OFFSET -0.000004 -44.370014 0.346954
			CHANNELS 6 Xposition Yposition Zposition Xrotation Yrotation Zrotation
			JOINT mixamorig:LeftFoot
			{
				OFFSET -0.000001 -44.423672 -3.044401
				CHANNELS 6 Xposition Yposition Zposition Xrotation Yrotation Zrotation
				JOINT mixamorig:LeftToeBase
				{
					OFFSET -0.000002 -8.728669 10.710558
					CHANNELS 6 Xposition Yposition Zposition Xrotation Yrotation Zrotation
					JOINT mixamorig:LeftToe_End
					{
						OFFSET -0.000003 -0.000679 9.278133
						CHANNELS 6 Xposition Yposition Zposition Xrotation Yrotation Zrotation
						End Site
						{
							OFFSET 0.000000 -0.068021 927.813477
						}
					}
				}
			}
		}
	}
}
MOTION
Frames: 3
Frame Time: 0.033333
0.000006 104.270477 1.554256 0.000010 0.000003 -0.000113 -0.000005 10.181587 0.131522 0.000001 -0.000003 0.000084 -0.000000 9.893967 -1.470711 0.000001 0.000000 -0.000000 -0.000000 9.220802 -1.370642 0.000000 -0.000000 -0.000000 0.000001 16.740433 -2.049030 0.000000 -0.000000 -0.000000 0.000000 9.617859 1.685014 0.000000 0.000000 0.000000 0.000002 22.037384 7.501101 0.000000 -0.000000 0.000000 -4.569968 11.014880 -2.160881 0.000008 0.000001 -0.000038 -10.592873 -0.524768 -2.231892 68.934558 32.592420 -22.694791 -27.841513 -0.000004 0.000585 -49.214259 123.036692 80.338748 -28.328814 0.000009 0.000020 -0.000321 -0.000045 0.000007 -2.464488 -1.573672 2.682260 -55.776093 -177.869587 -37.216335 -3.215275 -1.872596 1.924654 151.685060 30.685929 -0.088528 -2.654983 -1.527856 1.513071 142.797495 27.826626 -35.933461 -2.018826 -1.152007 1.108080 -0.000000 -0.000003 0.000002 -9.108389 -0.517547 2.260126 99.250053 13.863697 -16.327354 -3.700059 0.000336 0.001518 97.676766 11.514049 -13.130280 -2.850059 0.000369 -0.000261 96.748031 9.768598 -10.984494 -2.772179 0.000000 -0.000017 -0.000000 0.000000 -0.000000 -9.532606 0.000279 0.000241 95.385798 14.889131 -16.494159 -3.700060 0.000333 0.003983 96.324027 11.700459 -12.952507 -2.950068 0.000333 -0.001786 97.259537 11.162822 -12.655430 -2.946629 0.000014 -0.000153 -0.000000 0.000000 -0.000001 -9.103707 -0.042771 -1.864870 95.450056 16.945938 -18.562509 -3.379346 0.000326 -0.000780 97.277794 10.067383 -11.446109 -2.889760 0.000347 0.000663 101.434771 7.997611 -9.825858 -2.638798 -0.000014 0.000941 0.000000 -0.000000 -0.000001 -8.076768 -0.486410 -3.806028 82.436647 19.941164 -17.372952 -3.600038 0.000259 -0.003534 84.087019 10.099212 -8.783995 -2.100012 0.000321 -0.005518 85.742855 5.578852 -4.975985 -2.115776 -0.000053 -0.003675 -0.000005 0.000001 -0.000003 4.570446 11.014691 -2.160851 -0.000018 0.000010 -0.000021 10.592385 -0.524605 -2.232222 -25.525407 -49.480134 -11.917300 27.841705 -0.000110 -0.000007 210.628786 -47.148482 244.221665 28.328831 -0.000026 0.000023 0.000021 -0.000089 0.000000 2.465864 -1.575846 2.681797 -229.288084 -28.182771 266.138594 3.217687 -1.872056 1.916541 165.368456 41.981768 -219.656275 2.655997 -1.528821 1.514624 206.678656 45.371492 -267.174707 2.020917 -1.154084 1.115154 0.000001 0.000001 0.000004 9.109076 -0.517720 2.260009 199.097993 -12.945164 292.019547 3.699773 0.000261 -0.000156 203.420710 -18.710876 283.036892 2.849794 0.000351 0.000522 206.393372 -15.796165 298.782309 2.774893 -0.000036 -0.000026 -0.000000 0.000001 -0.000002 9.533198 0.000387 0.000175 197.554124 -9.058964 305.693832 3.699765 0.000289 -0.000074 201.316739 -15.713820 287.500940 2.949803 0.000293 0.000094 202.629310 -13.565321 298.540083 2.952866 -0.000013 0.000062 0.000000 -0.000002 0.000000 9.104335 -0.042668 -1.864935 198.361889 -8.973990 308.199773 3.149816 0.000422 0.000200 199.962927 -9.970724 -52.734091 2.949790 0.000419 0.000193 199.181703 -8.529388 -47.629262 2.644331 0.000031 0.000053 0.000001 0.000001 0.000001 8.077651 -0.486507 -3.806095 205.490981 -9.338152 319.186215 3.599879 0.000420 0.014883 206.064594 -2.579787 -12.706359 2.099994 0.000404 0.007856 204.009664 -0.355869 -3.517796 2.125494 -0.000000 0.007509 0.000001 0.000001 0.000000 -8.207786 -6.751667 -1.599560 -0.077001 -0.000003 0.000080 -0.000002 -44.370110 0.345938 0.153719 -0.000000 -0.000000 0.000000 -44.423679 -3.043532 -0.076700 0.000000 -0.000002 -0.000006 -8.728667 10.710559 -0.000009 -0.000000 -0.000000 -0.000001 -0.000679 9.278123 0.000000 -0.000000 -0.000000 8.207792 -6.751710 -1.599556 -0.074518 -0.000003 0.000081 -0.000002 -44.370014 0.346960 0.148822 0.000002 0.000000 -0.000001 -44.423664 -3.044403 -0.074314 0.000000 -0.000002 -0.000004 -8.728671 10.710558 0.000007 -0.000000 -0.000000 0.000000 -0.000680 9.278137 -0.000000 0.000000 -0.000001 
0.000006 104.270477 1.554256 0.000010 0.000003 -0.000113 -0.000005 10.181587 0.131522 0.000001 -0.000003 0.000084 -0.000000 9.893967 -1.470711 0.000001 0.000000 -0.000000 -0.000000 9.220802 -1.370642 0.000000 -0.000000 -0.000000 0.000001 16.740433 -2.049030 0.000000 -0.000000 -0.000000 0.000000 9.617859 1.685014 0.000000 0.000000 0.000000 0.000002 22.037384 7.501101 0.000000 -0.000000 0.000000 -4.569968 11.014880 -2.160881 0.000008 0.000001 -0.000038 -10.592878 -0.524755 -2.231914 68.875716 28.739018 -19.926449 -27.841509 0.000015 0.000543 -48.977371 126.427730 84.116956 -28.328819 0.000022 0.000027 -0.000321 -0.000046 0.000006 -2.464975 -1.573821 2.682169 56.032628 -307.891431 -51.868856 -3.215313 -1.872723 1.924469 9.171851 41.514378 -20.800204 -2.654965 -1.528019 1.512738 -16.578604 27.554689 -11.748068 -2.018849 -1.151999 1.108060 -0.000003 -0.000001 0.000002 -9.108346 -0.517916 2.259920 -19.482186 11.839536 2.041933 -3.700064 -0.000072 0.001342 -25.317530 17.777770 4.022872 -2.850086 -0.000063 -0.000395 -28.904452 14.545199 3.767526 -2.772164 -0.000018 -0.000028 -0.000003 -0.000003 -0.000003 -9.532562 -0.000103 0.000036 -17.472829 7.692653 1.193557 -3.700055 -0.000074 0.003815 -22.237943 14.016148 2.762709 -2.950042 -0.000095 -0.001965 -24.969958 12.768237 2.837718 -2.946631 -0.000001 -0.000158 -0.000000 -0.000002 -0.000000 -9.103657 -0.043127 -1.865068 -18.314095 8.081607 1.301686 -3.379312 -0.000091 -0.000980 -20.957659 9.462015 1.755391 -2.889751 -0.000072 0.000465 -21.865421 8.781020 1.703952 -2.638800 -0.000001 0.000947 0.000003 0.000004 -0.000001 -8.076717 -0.486773 -3.806198 -26.286815 8.825684 2.046336 -3.600001 -0.000178 -0.003661 -30.586690 3.490542 0.879379 -2.100000 -0.000131 -0.005671 -30.631629 1.338469 0.313989 -2.115784 -0.000039 -0.003679 -0.000002 0.000000 -0.000006 4.570446 11.014691 -2.160851 -0.000018 0.000010 -0.000021 10.592389 -0.524591 -2.232231 -28.843411 -51.579068 -14.166290 27.841724 -0.000097 -0.000015 209.940194 -48.203961 241.733782 28.328833 -0.000044 0.000023 0.000020 -0.000089 -0.000000 2.465846 -1.575880 2.681811 -230.070442 -26.142817 259.249201 3.217701 -1.872065 1.916523 170.704063 43.198792 -226.701738 2.655997 -1.528798 1.514602 211.840885 46.007133 -271.666376 2.020918 -1.154069 1.115164 0.000000 0.000003 0.000001 9.109116 -0.517712 2.260019 201.935854 -12.779876 300.663725 3.699758 0.000258 -0.000154 204.671195 -19.026995 285.832707 2.849845 0.000361 0.000511 207.663145 -15.865908 301.301446 2.774895 -0.000031 -0.000028 0.000000 -0.000002 -0.000000 9.533247 0.000402 0.000180 198.843076 -8.956490 316.128148 3.699788 0.000321 -0.000071 203.603267 -15.262942 296.253390 2.949830 0.000339 0.000109 204.925797 -13.454113 303.476342 2.952842 -0.000028 0.000060 0.000002 -0.000002 0.000001 9.104354 -0.042664 -1.864939 199.359056 -9.071940 311.384008 3.149788 0.000410 0.000200 201.243997 -10.086040 -51.850975 2.949784 0.000416 0.000205 200.376795 -8.919041 -47.088605 2.644321 0.000029 0.000047 -0.000000 -0.000001 -0.000001 8.077621 -0.486509 -3.806089 206.953885 -9.437021 321.203552 3.599942 0.000415 0.014890 207.823600 -3.561634 -13.892035 2.099973 0.000407 0.007855 204.813044 -1.439184 -7.659687 2.125519 0.000001 0.007516 0.000000 0.000001 0.000000 -8.207786 -6.751667 -1.599560 -0.077001 -0.000003 0.000080 -0.000002 -44.370110 0.345938 0.153719 -0.000000 -0.000000 0.000000 -44.423679 -3.043532 -0.076700 0.000000 -0.000002 -0.000006 -8.728667 10.710559 -0.000009 -0.000000 -0.000000 -0.000001 -0.000679 9.278123 0.000000 -0.000000 -0.000000 8.207792 -6.751710 -1.599556 -0.074518 -0.000003 0.000081 -0.000002 -44.370014 0.346960 0.148822 0.000002 0.000000 -0.000001 -44.423664 -3.044403 -0.074314 0.000000 -0.000002 -0.000004 -8.728671 10.710558 0.000007 -0.000000 -0.000000 0.000000 -0.000680 9.278137 -0.000000 0.000000 -0.000001 
0.000006 104.270477 1.554256 0.000010 0.000003 -0.000113 -0.000005 10.181587 0.131522 0.000001 -0.000003 0.000084 -0.000000 9.893967 -1.470711 0.000001 0.000000 -0.000000 -0.000000 9.220802 -1.370642 0.000000 -0.000000 -0.000000 0.000001 16.740433 -2.049030 0.000000 -0.000000 -0.000000 0.000000 9.617859 1.685014 0.000000 0.000000 0.000000 0.000002 22.037384 7.501101 0.000000 -0.000000 0.000000 -4.569968 11.014880 -2.160881 0.000008 0.000001 -0.000038 -10.592873 -0.524778 -2.231888 69.083853 32.626308 -22.780908 -27.841511 -0.000001 0.000555 -48.734578 122.197262 78.733469 -28.328823 -0.000005 0.000024 -0.000321 -0.000046 0.000008 -2.464980 -1.573842 2.682151 52.008930 -307.529705 -49.966146 -3.215302 -1.872720 1.924469 4.581261 39.558984 -18.821594 -2.654949 -1.528041 1.512729 -19.122033 25.652058 -11.310064 -2.018849 -1.152001 1.108065 -0.000002 -0.000001 0.000002 -9.108366 -0.517951 2.259915 -19.598137 12.185941 2.114693 -3.700078 -0.000059 0.001336 -26.267364 17.671504 4.153477 -2.850072 -0.000081 -0.000396 -29.941838 14.099304 3.787894 -2.772166 -0.000014 -0.000004 -0.000003 0.000001 -0.000002 -9.532548 -0.000123 0.000043 -19.001496 8.180957 1.382084 -3.700045 -0.000065 0.003814 -22.029535 13.697629 2.673138 -2.950048 -0.000094 -0.001967 -23.953537 12.076803 2.570393 -2.946621 0.000014 -0.000160 -0.000001 0.000002 0.000001 -9.103668 -0.043133 -1.865067 -19.721944 8.161403 1.417442 -3.379312 -0.000103 -0.000992 -21.255076 9.049324 1.703022 -2.889750 -0.000093 0.000447 -22.010969 8.068129 1.576502 -2.638818 0.000001 0.000941 -0.000000 -0.000002 -0.000002 -8.076725 -0.486782 -3.806199 -26.996664 8.495837 2.023424 -3.599996 -0.000172 -0.003669 -30.444161 3.402341 0.850841 -2.100004 -0.000126 -0.005675 -30.734618 1.414265 0.336072 -2.115752 -0.000054 -0.003675 -0.000001 0.000001 -0.000007 4.570446 11.014691 -2.160851 -0.000018 0.000010 -0.000021 10.592386 -0.524611 -2.232226 -28.169483 -52.468151 -14.096897 27.841702 -0.000111 -0.000020 211.533978 -48.418053 244.256990 28.328836 -0.000028 0.000019 0.000020 -0.000089 -0.000002 2.465868 -1.575932 2.681845 -232.675203 -20.185279 243.638804 3.217689 -1.872068 1.916556 172.721837 43.610748 -229.266364 2.656008 -1.528811 1.514602 215.950351 45.879535 -275.935845 2.020903 -1.154068 1.115144 -0.000002 0.000000 0.000001 9.109147 -0.517691 2.260028 203.289775 -12.783370 303.650703 3.699751 0.000280 -0.000156 206.938722 -18.783826 290.676240 2.849823 0.000338 0.000527 209.967078 -15.622022 305.792487 2.774870 -0.000031 -0.000028 -0.000001 0.000001 0.000001 9.533288 0.000414 0.000194 201.806081 -8.775944 321.229971 3.699770 0.000327 -0.000062 204.602620 -15.074357 299.371863 2.949828 0.000343 0.000118 205.516171 -13.569842 305.029910 2.952871 -0.000015 0.000057 0.000004 -0.000004 -0.000002 9.104424 -0.042660 -1.864929 201.795275 -9.220776 316.220546 3.149786 0.000409 0.000203 203.194166 -10.021228 -49.064500 2.949801 0.000409 0.000191 201.588799 -9.013550 -45.447976 2.644336 0.000030 0.000050 -0.000000 0.000001 -0.000001 8.077689 -0.486514 -3.806083 210.074612 -9.574511 324.630449 3.599923 0.000405 0.014899 209.978566 -3.862152 -14.201875 2.099955 0.000417 0.007867 206.785985 -2.012243 -9.128893 2.125504 -0.000016 0.007518 -0.000000 0.000001 -0.000000 -8.207786 -6.751667 -1.599560 -0.077001 -0.000003 0.000080 -0.000002 -44.370110 0.345938 0.153719 -0.000000 -0.000000 0.000000 -44.423679 -3.043532 -0.076700 0.000000 -0.000002 -0.000006 -8.728667 10.710559 -0.000009 -0.000000 -0.000000 -0.000001 -0.000679 9.278123 0.000000 -0.000000 -0.000000 8.207792 -6.751710 -1.599556 -0.074518 -0.000003 0.000081 -0.000002 -44.370014 0.346960 0.148822 0.000002 0.000000 -0.000001 -44.423664 -3.044403 -0.074314 0.000000 -0.000002 -0.000004 -8.728671 10.710558 0.000007 -0.000000 -0.000000 0.000000 -0.000680 9.278137 -0.000000 0.000000 -0.000001 
